<svg xmlns="http://www.w3.org/2000/svg" width="40.521" height="31.5" viewBox="0 0 40.521 31.5">
  <path id="ic-amex" d="M22.859,11.8c0-1.153-.991-1.294-1.927-1.294l-2.749-.021v4.873h1.153V13.591H20.6c1.294,0,1.02.724,1.041,1.765h1.167v-.949c0-.647-.1-1.062-.773-1.294a1.384,1.384,0,0,0,.823-1.315Zm-2.067.8H19.336V11.517h1.477c.359,0,.752.07.752.52s-.373.555-.773.555Zm-1.174,6.293H15.912l-1.477,1.6-1.441-1.6H8.318l-.007,4.873h4.6l1.5-1.617,1.434,1.617h2.264l.007-1.638c1.329,0,3.466.323,3.466-1.638,0-1.216-.865-1.6-1.962-1.6Zm-7.3,3.846H9.464v-.97h2.552V20.77H9.464v-.879H12.4l1.259,1.42Zm4.627.577-1.779-1.976,1.779-1.927Zm2.658-2.18H18.112v-1.24h1.512c.394,0,.717.162.717.591,0,.45-.323.647-.738.647Zm-2.222-9.612V10.491h-3.9v4.873h3.9V14.358H14.646v-.97H17.3V12.4H14.646v-.879ZM40.5,17.958h-.014ZM26.817,20.2c0-1.153-.991-1.315-1.905-1.315h-2.77l-.007,4.873H23.3l.007-1.779h1.237c.773,0,1.041.141,1.041.97l-.007.809h1.167l.007-.97c0-.626-.127-1.062-.773-1.294a1.391,1.391,0,0,0,.837-1.294Zm-2.053.788H23.309v-1.1h1.477c.359,0,.752.07.752.52,0,.485-.38.577-.773.577Zm-12.15-5.625V10.491H10.673L9.288,13.8,7.762,10.5H5.857v4.62L3.881,10.5H2.159L.07,15.363H1.329l.45-1.076H4.2l.45,1.076H7.031V11.552l1.688,3.811H9.745l1.687-3.811v3.811ZM2.194,13.275l.787-1.941.809,1.941ZM35.761,24.448v-.316c-.759.394-.274.316-11.018.316,0-1.772.007-1.68,0-1.772-.12-.007-.225-.007-.661-.007,0,1.259-.007.478-.007,1.779H21.291c0-.851.007-1.076.007-2.053a4.555,4.555,0,0,1-2.412.436c0,1.034-.007.584-.007,1.617H15.441c-.359-.4-.19-.218-1.083-1.223-.225.246-.9.977-1.132,1.223H7.46v-6.49H13.3c.352.394.2.218,1.09,1.209.225-.246.858-.942,1.1-1.209h4.078a3.357,3.357,0,0,1,1.709.394v-.394c3.818,0,4.521-.1,5.323.359v-.359h5.5v.366c.8-.485,1.378-.366,4.563-.366v.352c.724-.415,1.167-.366,3.818-.352V5.625a3.376,3.376,0,0,0-3.37-3.375H3.361A3.376,3.376,0,0,0-.014,5.625v7.72c.661-1.54,1.385-3.234,1.624-3.79H4.4c.3.71.113.26.633,1.484V9.555H8.269c.2.436.78,1.688.977,2.109.408-.956.71-1.68.886-2.109h7.242c0-.007.809,0,.816,0,3.073.014,3.769-.056,4.528.373V9.555h2.805v.654a3.363,3.363,0,0,1,2.159-.654h1.941c0,.035.134.021.162.021h2.278c.3.689.183.422.619,1.448V9.577h3.045c.345.563-.07-.127.787,1.294V9.577h2.805v6.469H36.394c-.38-.633-.1-.155-.928-1.54v1.54H31.753c-.45-1.041-.007-.021-.464-1.076H29.953c-.3.7-.155.366-.45,1.076H27.619a3.269,3.269,0,0,1-2.088-.626v.626H20.855c-.021-.977-.007-1.744-.007-1.744a5.019,5.019,0,0,0-.689-.014v1.765H10.631v-.8c-.176.394-.19.415-.359.8H8.2c-.281-.626-.2-.45-.359-.8v.8H4.12c-.3-.71-.155-.373-.45-1.076H2.32c-.3.7-.155.366-.45,1.076H0V30.375A3.376,3.376,0,0,0,3.375,33.75H37.132a3.376,3.376,0,0,0,3.375-3.375V24.019C39.614,24.6,38.208,24.448,35.761,24.448Zm2.552-4.535H40.43V18.886H38.116a1.476,1.476,0,0,0-1.673,1.455c0,2.32,3,.9,3,1.927,0,.359-.3.45-.591.45H36.6v1.041h2.25a1.843,1.843,0,0,0,1.582-.626V21.319c-.738-.97-2.763-.091-2.763-.949,0-.408.323-.457.647-.457Zm-4.008,2.8H32.041l-.007,1.041H34.3c1.041,0,1.842-.394,1.842-1.547,0-2.334-3.016-.788-3.016-1.849,0-.394.345-.45.647-.45h2.138V18.879H33.574a1.458,1.458,0,0,0-1.652,1.455c0,2.32,3,.879,3,1.927-.007.38-.33.45-.619.45Zm-2.967-2.82V18.886H27.457l-.007,4.873h3.881l.007-1-2.714-.021v-.97h2.665V20.77H28.631v-.879Zm-3.959-7.6c-.021.014-.1.155-.1.534,0,.422.063.541.077.555a.554.554,0,0,0,.239.035l.513-1.188c-.077,0-.148-.007-.218-.007-.39,0-.49.048-.51.069Zm1.434-.738h-.007Zm-1.139-1.069c-1.652,0-2.391.844-2.391,2.482,0,1.561.717,2.391,2.32,2.391h1.35l.45-1.076h2.412l.464,1.076h2.37V11.707l2.194,3.649H38.5V10.5H37.315v3.382L35.269,10.5H33.49v4.6l-1.962-4.6H29.784l-1.652,3.832h-.52c-.935,0-1.132-.57-1.132-1.4,0-1.673,1.1-1.406,2.327-1.385V10.484Zm2.96.851.788,1.941h-1.6Zm-7.109-.844v4.873h1.188V10.491Z" transform="translate(0.014 -2.25)" fill="#fff"/>
</svg>
