<svg xmlns="http://www.w3.org/2000/svg" width="40.5" height="31.495" viewBox="0 0 40.5 31.495">
  <path id="ic-apple-pay" d="M21.248,15.356a1.8,1.8,0,0,1-2.039,1.9H17.5v-3.81h1.716a1.791,1.791,0,0,1,2.032,1.905Zm3.34,4.4c0,.584.506.963,1.3.963a1.616,1.616,0,0,0,1.772-1.54V18.64l-1.652.1c-.935.064-1.42.408-1.42,1.013ZM40.5,5.555V30.3a3.376,3.376,0,0,1-3.375,3.375H3.375A3.376,3.376,0,0,1,0,30.3V5.555A3.376,3.376,0,0,1,3.375,2.18h33.75A3.376,3.376,0,0,1,40.5,5.555ZM8.986,13.866a1.948,1.948,0,0,0,1.554-.731,2.321,2.321,0,0,0,.541-1.666,2.312,2.312,0,0,0-1.54.8,2.206,2.206,0,0,0-.555,1.6ZM13.247,19.1a2.319,2.319,0,0,1-1.392-2.109,2.367,2.367,0,0,1,1.125-1.983,2.42,2.42,0,0,0-1.9-1.034c-.858-.049-1.589.485-2,.485S8.044,14,7.369,14.013a2.522,2.522,0,0,0-2.145,1.308c-.921,1.589-.239,3.938.654,5.231.436.64.963,1.343,1.652,1.315.654-.028.914-.422,1.7-.422s1.02.422,1.709.415c.717-.014,1.16-.64,1.6-1.28a5.951,5.951,0,0,0,.708-1.48Zm9.52-3.755A3.01,3.01,0,0,0,19.61,12.2h-3.6v9.59H17.5V18.513h2.06a3.045,3.045,0,0,0,3.206-3.164ZM29.1,17.016c0-1.385-1.111-2.278-2.812-2.278-1.582,0-2.749.907-2.791,2.145H24.84a1.308,1.308,0,0,1,1.406-.977c.914,0,1.42.422,1.42,1.209v.527l-1.856.112c-1.73.1-2.665.816-2.665,2.046a2.108,2.108,0,0,0,2.348,2.067,2.455,2.455,0,0,0,2.194-1.223h.028V21.8h1.378V17.016Zm7.186-2.187H34.77L33.019,20.5h-.028L31.24,14.829H29.672L32.2,21.811l-.134.422a1.187,1.187,0,0,1-1.259,1c-.12,0-.345-.014-.436-.021v1.153a3.643,3.643,0,0,0,.57.035c1.455,0,2.137-.555,2.735-2.236Z" transform="translate(0 -2.18)" fill="#fff"/>
</svg>
