<svg xmlns="http://www.w3.org/2000/svg" width="47.254" height="31.5" viewBox="0 0 47.254 31.5">
  <path id="ic-mastercard" d="M16.331,26.8h-.267q-.964,0-.964.656,0,.451.41.451a.685.685,0,0,0,.574-.308,1.424,1.424,0,0,0,.247-.8Zm8.1-.738H25.7V26a.315.315,0,0,0,.01-.133q-.01-.051-.02-.144a.577.577,0,0,0-.041-.164.426.426,0,0,0-.092-.133.5.5,0,0,0-.154-.1.585.585,0,0,0-.236-.041q-.574,0-.738.779Zm11.074.738H35.26q-.984,0-.984.656,0,.451.41.451a.685.685,0,0,0,.574-.308,1.424,1.424,0,0,0,.246-.8Zm6.542-.533q0-.841-.615-.841a.728.728,0,0,0-.636.41,2.008,2.008,0,0,0-.246,1.046q0,.861.574.861a.764.764,0,0,0,.666-.41,1.987,1.987,0,0,0,.258-1.068ZM12.414,23.373H14.2l-.9,5.373H12.148l.656-4.122-1.456,4.122h-.8l-.082-4.1-.7,4.1H8.682l.9-5.373h1.661l.041,3.343ZM17.6,25.567q0,.123-.082.861-.328,2.071-.349,2.317H16.2l.02-.451a1.41,1.41,0,0,1-1.189.533.99.99,0,0,1-.769-.328,1.233,1.233,0,0,1-.3-.861A1.52,1.52,0,0,1,14.5,26.4a2.286,2.286,0,0,1,1.5-.441,4.422,4.422,0,0,1,.472.02.576.576,0,0,1,.01-.113q.01-.051.02-.092a.283.283,0,0,0,.01-.062q0-.41-.738-.41a3.812,3.812,0,0,0-1.21.2q0-.082.144-.984a5.024,5.024,0,0,1,1.374-.226q1.518,0,1.518,1.271Zm3.2-1.189-.164,1a6.248,6.248,0,0,0-.841-.062q-.554,0-.554.349a.312.312,0,0,0,.092.246,1.854,1.854,0,0,0,.441.226,1.288,1.288,0,0,1,.82,1.23q0,1.477-1.784,1.456a4.968,4.968,0,0,1-1.189-.123q0-.041.144-1a4,4,0,0,0,1.046.164q.656,0,.656-.39a.319.319,0,0,0-.092-.236,1.833,1.833,0,0,0-.441-.256,1.3,1.3,0,0,1-.882-1.21q0-1.477,1.723-1.477a5.354,5.354,0,0,1,1.025.083Zm1.8,0h.574l-.144,1.066h-.595q-.041.349-.133.831t-.144.79a3.64,3.64,0,0,0-.051.369q0,.328.39.328a1.348,1.348,0,0,0,.328-.041l-.164.964a2.594,2.594,0,0,1-.82.144q-.882,0-.923-.964a8.865,8.865,0,0,1,.164-1.148q.062-.41.513-2.994H22.73Zm4.163,1.5a4.6,4.6,0,0,1-.144,1.066H24.35a.7.7,0,0,0,.2.677,1.177,1.177,0,0,0,.779.226,2.629,2.629,0,0,0,1.189-.287l-.185,1.107a4.54,4.54,0,0,1-1.169.164,1.722,1.722,0,0,1-1.948-1.948,2.942,2.942,0,0,1,.564-1.856A1.732,1.732,0,0,1,25.21,24.3a1.517,1.517,0,0,1,1.138.431,1.573,1.573,0,0,1,.42,1.148Zm2.851-1.518a4.836,4.836,0,0,0-.451,1.271q-.451-.041-.636.492a20.759,20.759,0,0,0-.513,2.625H26.872l.062-.287q.451-2.666.595-4.081h1.046l-.062.677a2.448,2.448,0,0,1,.523-.6.678.678,0,0,1,.584-.092Zm3.835-.841-.185,1.169a2.341,2.341,0,0,0-1.025-.287,1.244,1.244,0,0,0-1.046.564,2.4,2.4,0,0,0-.41,1.446,1.511,1.511,0,0,0,.277.964.95.95,0,0,0,.79.349,2.318,2.318,0,0,0,.984-.267l-.205,1.21a3.781,3.781,0,0,1-1.025.164,1.843,1.843,0,0,1-1.466-.626,2.491,2.491,0,0,1-.543-1.692,3.649,3.649,0,0,1,.728-2.348A2.293,2.293,0,0,1,32.2,23.25a3.677,3.677,0,0,1,1.251.267Zm3.322,2.051a5.325,5.325,0,0,1-.082.861q-.267,1.62-.349,2.317H35.4l.02-.451a1.432,1.432,0,0,1-1.21.533.959.959,0,0,1-.759-.328,1.261,1.261,0,0,1-.287-.861,1.534,1.534,0,0,1,.523-1.241,2.244,2.244,0,0,1,1.487-.441,4.082,4.082,0,0,1,.472.02.974.974,0,0,0,.041-.267q0-.41-.738-.41a3.812,3.812,0,0,0-1.21.2q0-.082.164-.984a5.024,5.024,0,0,1,1.374-.226q1.5,0,1.5,1.271Zm2.892-1.21a3.952,3.952,0,0,0-.431,1.271.591.591,0,0,0-.646.472,23.119,23.119,0,0,0-.523,2.645H36.921l.062-.287q.39-2.133.6-4.081h1.066a4.161,4.161,0,0,1-.082.677,2.759,2.759,0,0,1,.543-.6.642.642,0,0,1,.564-.092Zm2.892-.984H43.7l-.882,5.373h-1.08l.062-.39a1.472,1.472,0,0,1-1.066.472,1.217,1.217,0,0,1-1.015-.492,2.094,2.094,0,0,1-.379-1.312,3.19,3.19,0,0,1,.564-1.887,1.611,1.611,0,0,1,1.323-.8,1.331,1.331,0,0,1,1.087.595Zm2.276,2.666a11.156,11.156,0,0,0-17.883-8.9,11.758,11.758,0,0,1,3.507,5.824H29.436a11.042,11.042,0,0,0-3.24-5.188,11.042,11.042,0,0,0-3.24,5.188H21.93a11.758,11.758,0,0,1,3.507-5.824,11.163,11.163,0,1,0,0,17.8,11.8,11.8,0,0,1-3.384-5.414h1.025A10.95,10.95,0,0,0,26.2,34.3a10.95,10.95,0,0,0,3.117-4.778h1.025a11.794,11.794,0,0,1-3.384,5.414,11.137,11.137,0,0,0,17.883-8.9Zm4.983-13.125v26.25A2.661,2.661,0,0,1,47.2,41.789H5.2a2.523,2.523,0,0,1-1.85-.779,2.522,2.522,0,0,1-.779-1.846V12.914a2.523,2.523,0,0,1,.779-1.846,2.522,2.522,0,0,1,1.85-.779h42a2.661,2.661,0,0,1,2.625,2.625Z" transform="translate(-2.571 -10.289)" fill="#fff"/>
</svg>
