<svg xmlns="http://www.w3.org/2000/svg" width="40.5" height="31.5" viewBox="0 0 40.5 31.5">
  <path id="ic-paypal" d="M13.1,18.155a1.509,1.509,0,0,1-1.547,1.512,1.016,1.016,0,0,1-1.125-1.055,1.525,1.525,0,0,1,1.526-1.547,1.056,1.056,0,0,1,1.146,1.09Zm-7.44-3.41H5.33a.22.22,0,0,0-.225.19l-.3,1.877.577-.021c.773,0,1.371-.1,1.512-1,.162-.942-.436-1.048-1.23-1.048Zm19.969,0h-.316a.207.207,0,0,0-.225.19l-.3,1.877.563-.021c.914,0,1.547-.211,1.547-1.266-.007-.745-.675-.78-1.273-.78ZM40.5,5.625v24.75a3.376,3.376,0,0,1-3.375,3.375H3.375A3.376,3.376,0,0,1,0,30.375V5.625A3.376,3.376,0,0,1,3.375,2.25h33.75A3.376,3.376,0,0,1,40.5,5.625ZM9.021,15.145c0-1.477-1.139-1.969-2.44-1.969H3.769a.372.372,0,0,0-.366.33L2.25,20.686a.242.242,0,0,0,.225.281H3.811a.449.449,0,0,0,.387-.4l.316-1.87c.07-.506.928-.33,1.266-.33a2.974,2.974,0,0,0,3.241-3.22Zm5.92.619H13.6c-.267,0-.281.387-.3.577a1.8,1.8,0,0,0-1.666-.7A3.137,3.137,0,0,0,8.6,18.819a2.1,2.1,0,0,0,2.229,2.264,2.738,2.738,0,0,0,1.863-.837,1.879,1.879,0,0,0-.07.436c0,.162.07.281.225.281h1.209a.458.458,0,0,0,.387-.4l.717-4.521a.239.239,0,0,0-.22-.278Zm2.848,6.884,4.479-6.511a.144.144,0,0,0,.035-.12.251.251,0,0,0-.225-.246h-1.35a.4.4,0,0,0-.316.176l-1.863,2.742-.773-2.637a.427.427,0,0,0-.387-.281H16.073a.251.251,0,0,0-.225.246c0,.084,1.371,3.994,1.491,4.366A18.165,18.165,0,0,0,15.9,22.6a.227.227,0,0,0,.225.225h1.35a.414.414,0,0,0,.316-.183Zm11.2-7.5c0-1.477-1.139-1.969-2.44-1.969h-2.79a.387.387,0,0,0-.387.33l-1.139,7.172a.251.251,0,0,0,.225.281H23.9a.3.3,0,0,0,.281-.225L24.5,18.7c.07-.506.928-.33,1.266-.33a2.97,2.97,0,0,0,3.224-3.225Zm5.92.619H33.574c-.267,0-.281.387-.3.577a1.763,1.763,0,0,0-1.666-.7,3.137,3.137,0,0,0-3.038,3.178A2.1,2.1,0,0,0,30.8,21.08a2.658,2.658,0,0,0,1.863-.837,3.125,3.125,0,0,0-.07.436c0,.162.07.281.225.281h1.216a.458.458,0,0,0,.387-.4l.717-4.521a.239.239,0,0,0-.225-.274Zm3.34-2.341a.236.236,0,0,0-.225-.246h-1.3a.233.233,0,0,0-.225.19L35.36,20.679l-.021.035a.249.249,0,0,0,.246.246h1.16a.436.436,0,0,0,.366-.4l1.139-7.116v-.021Zm-6.328,3.642A1.52,1.52,0,0,0,30.4,18.612a1.031,1.031,0,0,0,1.139,1.055,1.5,1.5,0,0,0,1.526-1.512,1.047,1.047,0,0,0-1.139-1.09Z" transform="translate(0 -2.25)" fill="#fff"/>
</svg>
