<svg xmlns="http://www.w3.org/2000/svg" width="21.767" height="17.414" viewBox="0 0 21.767 17.414">
  <path id="ic-shipping-free" d="M21.223,11.972h-.544V8.3a1.633,1.633,0,0,0-.48-1.153l-3.4-3.4a1.633,1.633,0,0,0-1.153-.48h-1.5V1.633A1.633,1.633,0,0,0,12.516,0H3.809A1.633,1.633,0,0,0,2.177,1.633V3.265H.272A.273.273,0,0,0,0,3.537v.544a.273.273,0,0,0,.272.272H9.523a.273.273,0,0,1,.272.272V5.17a.273.273,0,0,1-.272.272H1.36a.273.273,0,0,0-.272.272v.544a.273.273,0,0,0,.272.272H8.435a.273.273,0,0,1,.272.272v.544a.273.273,0,0,1-.272.272H.272A.273.273,0,0,0,0,7.891v.544a.273.273,0,0,0,.272.272H7.346a.273.273,0,0,1,.272.272v.544a.273.273,0,0,1-.272.272H2.177v4.353a3.265,3.265,0,0,0,6.53,0H13.06a3.265,3.265,0,0,0,6.53,0h1.633a.546.546,0,0,0,.544-.544V12.516A.546.546,0,0,0,21.223,11.972ZM5.442,15.781a1.633,1.633,0,1,1,1.633-1.633A1.633,1.633,0,0,1,5.442,15.781Zm10.884,0a1.633,1.633,0,1,1,1.633-1.633A1.633,1.633,0,0,1,16.325,15.781Zm2.721-7.074h-4.9V4.9h1.5l3.4,3.4Z" fill="#b8b8b8"/>
</svg>
